<svg xmlns="http://www.w3.org/2000/svg" width="800" height="1200" viewBox="0 0 800 1200" fill="none">
  <defs>
    <linearGradient id="glassGlow" x1="0" y1="0" x2="1" y2="1">
      <stop offset="0%" stop-color="#0ea5e9" stop-opacity="0.55"/>
      <stop offset="35%" stop-color="#6366f1" stop-opacity="0.35"/>
      <stop offset="100%" stop-color="#0ea5e9" stop-opacity="0.15"/>
    </linearGradient>
    <linearGradient id="brushed" x1="0" y1="0" x2="0" y2="1">
      <stop offset="0%" stop-color="#1f2937" />
      <stop offset="100%" stop-color="#0b111b" />
    </linearGradient>
    <pattern id="vent" x="0" y="0" width="14" height="14" patternUnits="userSpaceOnUse">
      <rect width="14" height="14" fill="#0f1626"/>
      <circle cx="7" cy="7" r="3.2" fill="#1f2937" />
    </pattern>
  </defs>
  <rect x="70" y="40" width="660" height="1120" rx="40" fill="#0b1020" stroke="#1f2937" stroke-width="4"/>
  <rect x="110" y="90" width="440" height="1020" rx="24" fill="#0f172a" stroke="#1e293b" stroke-width="4"/>
  <rect x="120" y="100" width="420" height="1000" rx="22" fill="url(#glassGlow)" stroke="#38bdf8" stroke-opacity="0.35" stroke-width="3"/>
  <rect x="580" y="140" width="90" height="900" rx="16" fill="#111827" stroke="#1f2937" stroke-width="3"/>
  <rect x="590" y="160" width="70" height="860" rx="14" fill="url(#vent)" opacity="0.8"/>
  <rect x="560" y="40" width="130" height="1120" rx="28" fill="url(#brushed)" />
  <rect x="560" y="40" width="130" height="1120" rx="28" stroke="#334155" stroke-width="4" fill="none" opacity="0.5"/>
  <rect x="560" y="70" width="130" height="80" rx="18" fill="#111827" stroke="#1f2937" stroke-width="3" opacity="0.9"/>
  <rect x="590" y="1040" width="70" height="30" rx="8" fill="#0ea5e9" opacity="0.45"/>
  <rect x="300" y="80" width="220" height="12" rx="4" fill="#94a3b8" opacity="0.35"/>
  <rect x="300" y="1104" width="220" height="12" rx="4" fill="#94a3b8" opacity="0.25"/>
  <text x="400" y="1160" font-family="'Inter', 'Segoe UI', sans-serif" font-size="26" fill="#cbd5e1" text-anchor="middle" opacity="0.85">Front tempered glass</text>
</svg>
