<svg xmlns="http://www.w3.org/2000/svg" width="1200" height="1200" viewBox="0 0 1200 1200" fill="none">
  <defs>
    <linearGradient id="edge" x1="0" y1="0" x2="0" y2="1">
      <stop offset="0%" stop-color="#1f2937" />
      <stop offset="100%" stop-color="#0b111b" />
    </linearGradient>
    <linearGradient id="angleGlass" x1="0" y1="0" x2="1" y2="1">
      <stop offset="0%" stop-color="#0ea5e9" stop-opacity="0.5" />
      <stop offset="40%" stop-color="#a855f7" stop-opacity="0.35" />
      <stop offset="100%" stop-color="#14b8a6" stop-opacity="0.25" />
    </linearGradient>
    <pattern id="honey" x="0" y="0" width="16" height="16" patternUnits="userSpaceOnUse">
      <rect width="16" height="16" fill="#0e1422" />
      <circle cx="8" cy="8" r="4" fill="#111827" />
    </pattern>
  </defs>
  <rect x="220" y="120" width="620" height="960" rx="38" fill="#0b1020" stroke="#1f2937" stroke-width="4"/>
  <path d="M220 160 L760 120 L960 240 L960 1040 L820 1080 L220 1070 Z" fill="#0f172a" stroke="#1e293b" stroke-width="4" />
  <path d="M265 190 L760 150 L910 260 L910 980 L800 1020 L265 1010 Z" fill="url(#angleGlass)" stroke="#38bdf8" stroke-opacity="0.35" stroke-width="3" />
  <path d="M760 120 L960 240 L960 1040 L760 920 Z" fill="url(#edge)" />
  <path d="M910 260 L960 240 L960 1040 L910 980 Z" fill="url(#edge)" opacity="0.9"/>
  <path d="M820 280 L890 250 L890 780 L820 820 Z" fill="url(#honey)" opacity="0.85" />
  <rect x="320" y="135" width="260" height="18" rx="6" fill="#cbd5e1" opacity="0.28" />
  <rect x="320" y="1048" width="260" height="18" rx="6" fill="#cbd5e1" opacity="0.2" />
  <rect x="910" y="1060" width="70" height="24" rx="8" fill="#0ea5e9" opacity="0.4" />
  <path d="M220 520 L760 480 L760 920 L220 880 Z" fill="url(#honey)" opacity="0.15" />
  <text x="510" y="1160" font-family="'Inter', 'Segoe UI', sans-serif" font-size="28" fill="#cbd5e1" text-anchor="middle" opacity="0.85">Perspective glass + mesh reference</text>
</svg>
