<svg xmlns="http://www.w3.org/2000/svg" width="800" height="1200" viewBox="0 0 800 1200" fill="none">
  <defs>
    <linearGradient id="meshBody" x1="0" y1="0" x2="0" y2="1">
      <stop offset="0%" stop-color="#1d2533" />
      <stop offset="100%" stop-color="#0e1422" />
    </linearGradient>
    <pattern id="mesh" x="0" y="0" width="18" height="18" patternUnits="userSpaceOnUse">
      <rect width="18" height="18" fill="#0f1827" />
      <circle cx="9" cy="9" r="4.5" fill="#111827" />
      <circle cx="9" cy="9" r="2.5" fill="#1f2937" />
    </pattern>
  </defs>
  <rect x="70" y="60" width="660" height="1080" rx="34" fill="#0b1020" stroke="#1f2937" stroke-width="4"/>
  <rect x="110" y="100" width="580" height="1000" rx="26" fill="url(#meshBody)" stroke="#1e293b" stroke-width="3"/>
  <rect x="135" y="130" width="530" height="940" rx="22" fill="url(#mesh)" opacity="0.92"/>
  <rect x="120" y="115" width="560" height="970" rx="24" stroke="#334155" stroke-width="2.5" opacity="0.55"/>
  <rect x="140" y="160" width="80" height="50" rx="12" fill="#1f2937" opacity="0.8"/>
  <rect x="220" y="160" width="80" height="50" rx="12" fill="#1f2937" opacity="0.7"/>
  <rect x="300" y="160" width="80" height="50" rx="12" fill="#1f2937" opacity="0.6"/>
  <rect x="380" y="160" width="80" height="50" rx="12" fill="#1f2937" opacity="0.5"/>
  <rect x="460" y="160" width="80" height="50" rx="12" fill="#1f2937" opacity="0.4"/>
  <rect x="540" y="160" width="80" height="50" rx="12" fill="#1f2937" opacity="0.3"/>
  <rect x="325" y="1040" width="150" height="35" rx="10" fill="#0ea5e9" opacity="0.5"/>
  <text x="400" y="1165" font-family="'Inter', 'Segoe UI', sans-serif" font-size="26" fill="#cbd5e1" text-anchor="middle" opacity="0.85">Side mesh panel</text>
</svg>
